<mxfile host="app.diagrams.net" modified="2024-04-10T17:14:49.115Z" agent="Mozilla/5.0 (Windows NT 10.0; Win64; x64) AppleWebKit/537.36 (KHTML, like Gecko) Chrome/123.0.0.0 Safari/537.36" etag="KQGBxg5FxLutz0ccxSx6" version="21.5.0" type="github">
  <diagram name="Page-1" id="c37626ed-c26b-45fb-9056-f9ebc6bb27b6">
    <mxGraphModel dx="1257" dy="669" grid="1" gridSize="10" guides="1" tooltips="1" connect="1" arrows="1" fold="1" page="1" pageScale="1" pageWidth="1169" pageHeight="827" background="none" math="0" shadow="0">
      <root>
        <mxCell id="0" />
        <mxCell id="1" parent="0" />
        <mxCell id="pD-43swfuIkd-8lSXasL-1" value="&lt;font style=&quot;font-size: 24px;&quot;&gt;praça de alimentação&lt;/font&gt;" style="whiteSpace=wrap;html=1;aspect=fixed;" vertex="1" parent="1">
          <mxGeometry x="460" y="330" width="130" height="130" as="geometry" />
        </mxCell>
        <mxCell id="pD-43swfuIkd-8lSXasL-2" value="&lt;font style=&quot;font-size: 20px;&quot;&gt;quiosque&lt;/font&gt;" style="whiteSpace=wrap;html=1;aspect=fixed;" vertex="1" parent="1">
          <mxGeometry x="710" y="370" width="90" height="90" as="geometry" />
        </mxCell>
        <mxCell id="pD-43swfuIkd-8lSXasL-3" value="" style="ellipse;whiteSpace=wrap;html=1;" vertex="1" parent="1">
          <mxGeometry x="455" y="220" width="140" height="90" as="geometry" />
        </mxCell>
        <mxCell id="pD-43swfuIkd-8lSXasL-4" value="&lt;font style=&quot;font-size: 21px;&quot;&gt;caminhos&lt;/font&gt;" style="ellipse;whiteSpace=wrap;html=1;" vertex="1" parent="1">
          <mxGeometry x="290" y="470" width="120" height="80" as="geometry" />
        </mxCell>
        <mxCell id="pD-43swfuIkd-8lSXasL-5" value="" style="whiteSpace=wrap;html=1;aspect=fixed;" vertex="1" parent="1">
          <mxGeometry x="40" y="510" width="70" height="70" as="geometry" />
        </mxCell>
        <mxCell id="pD-43swfuIkd-8lSXasL-6" value="" style="whiteSpace=wrap;html=1;aspect=fixed;" vertex="1" parent="1">
          <mxGeometry x="190" y="390" width="50" height="50" as="geometry" />
        </mxCell>
        <mxCell id="pD-43swfuIkd-8lSXasL-7" value="" style="rounded=0;whiteSpace=wrap;html=1;" vertex="1" parent="1">
          <mxGeometry x="280" y="410" width="50" height="30" as="geometry" />
        </mxCell>
        <mxCell id="pD-43swfuIkd-8lSXasL-8" value="" style="ellipse;whiteSpace=wrap;html=1;" vertex="1" parent="1">
          <mxGeometry x="90" y="310" width="90" height="70" as="geometry" />
        </mxCell>
        <mxCell id="pD-43swfuIkd-8lSXasL-9" value="&lt;font style=&quot;&quot;&gt;&lt;font style=&quot;font-size: 25px;&quot;&gt;rotas&lt;/font&gt;&lt;br&gt;&lt;/font&gt;" style="whiteSpace=wrap;html=1;aspect=fixed;" vertex="1" parent="1">
          <mxGeometry x="40" y="170" width="80" height="80" as="geometry" />
        </mxCell>
        <mxCell id="pD-43swfuIkd-8lSXasL-10" value="" style="rounded=0;whiteSpace=wrap;html=1;" vertex="1" parent="1">
          <mxGeometry x="860" y="230" width="120" height="60" as="geometry" />
        </mxCell>
        <mxCell id="pD-43swfuIkd-8lSXasL-11" value="" style="ellipse;whiteSpace=wrap;html=1;" vertex="1" parent="1">
          <mxGeometry x="35" y="590" width="90" height="60" as="geometry" />
        </mxCell>
      </root>
    </mxGraphModel>
  </diagram>
</mxfile>
